REM DIRINDEX 1\6,1\2\7,1\2\8,1\2\9,1\3\10,1\3\11,1\4\12,1\4\13,1\4\14,1\5\15,1\5\16,1\5\17
REM DIRNAME cjc041,folder01,folder02,folder03,folder04,folder05,folder06,folder07,folder08,folder09,folder10,folder11,folder12,folder13,folder14,folder15,folder16
TITLE ""
FILE "3Q_t_0032-0047.mp3" MP3
  TRACK 01 AUDIO
    TITLE "10:cjc041_1667"
    INDEX 01 00:00:00
  TRACK 02 AUDIO
    TITLE "0:"
    INDEX 01 00:00:72
  TRACK 03 AUDIO
    TITLE "11:cjc041_1668"
    INDEX 01 00:01:58
  TRACK 04 AUDIO
    TITLE "0:"
    INDEX 01 00:03:33
  TRACK 05 AUDIO
    TITLE "10:cjc041_1669"
    INDEX 01 00:04:15
  TRACK 06 AUDIO
    TITLE "0:"
    INDEX 01 00:05:16
  TRACK 07 AUDIO
    TITLE "11:cjc041_1670"
    INDEX 01 00:05:69
  TRACK 08 AUDIO
    TITLE "0:"
    INDEX 01 00:10:55
  TRACK 09 AUDIO
    TITLE "10:cjc041_1671"
    INDEX 01 00:11:33
  TRACK 10 AUDIO
    TITLE "0:"
    INDEX 01 00:12:54
  TRACK 11 AUDIO
    TITLE "11:cjc041_1672"
    INDEX 01 00:13:33
  TRACK 12 AUDIO
    TITLE "0:"
    INDEX 01 00:14:56
  TRACK 13 AUDIO
    TITLE "10:cjc041_1673"
    INDEX 01 00:15:32
  TRACK 14 AUDIO
    TITLE "0:"
    INDEX 01 00:16:48
  TRACK 15 AUDIO
    TITLE "11:cjc041_1674"
    INDEX 01 00:17:23
  TRACK 16 AUDIO
    TITLE "0:"
    INDEX 01 00:18:42
  TRACK 17 AUDIO
    TITLE "10:cjc041_1675"
    INDEX 01 00:19:22
  TRACK 18 AUDIO
    TITLE "0:"
    INDEX 01 00:20:37
  TRACK 19 AUDIO
    TITLE "11:cjc041_1676"
    INDEX 01 00:21:17
  TRACK 20 AUDIO
    TITLE "0:"
    INDEX 01 00:23:48
  TRACK 21 AUDIO
    TITLE "10:cjc041_1677"
    INDEX 01 00:24:33
  TRACK 22 AUDIO
    TITLE "0:"
    INDEX 01 00:25:46
  TRACK 23 AUDIO
    TITLE "11:cjc041_1678"
    INDEX 01 00:26:24
  TRACK 24 AUDIO
    TITLE "0:"
    INDEX 01 00:27:69
  TRACK 25 AUDIO
    TITLE "10:cjc041_1679"
    INDEX 01 00:28:47
  TRACK 26 AUDIO
    TITLE "0:"
    INDEX 01 00:30:03
  TRACK 27 AUDIO
    TITLE "11:cjc041_1680"
    INDEX 01 00:30:54
  TRACK 28 AUDIO
    TITLE "0:"
    INDEX 01 00:34:36
  TRACK 29 AUDIO
    TITLE "10:cjc041_1681"
    INDEX 01 00:35:14
  TRACK 30 AUDIO
    TITLE "0:"
    INDEX 01 00:36:27
  TRACK 31 AUDIO
    TITLE "11:cjc041_1682"
    INDEX 01 00:37:05
  TRACK 32 AUDIO
    TITLE "0:"
    INDEX 01 00:38:00
  TRACK 33 AUDIO
    TITLE "10:cjc041_1683"
    INDEX 01 00:38:61
  TRACK 34 AUDIO
    TITLE "0:"
    INDEX 01 00:40:09
  TRACK 35 AUDIO
    TITLE "11:cjc041_1684"
    INDEX 01 00:40:64
  TRACK 36 AUDIO
    TITLE "0:"
    INDEX 01 00:43:72
  TRACK 37 AUDIO
    TITLE "10:cjc041_1685"
    INDEX 01 00:44:52
  TRACK 38 AUDIO
    TITLE "0:"
    INDEX 01 00:46:07
  TRACK 39 AUDIO
    TITLE "11:cjc041_1686"
    INDEX 01 00:46:62
  TRACK 40 AUDIO
    TITLE "0:"
    INDEX 01 00:48:69
  TRACK 41 AUDIO
    TITLE "10:cjc041_1687"
    INDEX 01 00:49:51
  TRACK 42 AUDIO
    TITLE "0:"
    INDEX 01 00:50:64
  TRACK 43 AUDIO
    TITLE "11:cjc041_1688"
    INDEX 01 00:51:46
  TRACK 44 AUDIO
    TITLE "0:"
    INDEX 01 00:54:07
  TRACK 45 AUDIO
    TITLE "10:cjc041_1689"
    INDEX 01 00:54:62
  TRACK 46 AUDIO
    TITLE "0:"
    INDEX 01 00:55:69
  TRACK 47 AUDIO
    TITLE "11:cjc041_1690"
    INDEX 01 00:56:45
  TRACK 48 AUDIO
    TITLE "0:"
    INDEX 01 00:57:43
  TRACK 49 AUDIO
    TITLE "10:cjc041_1691"
    INDEX 01 00:58:30
  TRACK 50 AUDIO
    TITLE "0:"
    INDEX 01 00:59:39
  TRACK 51 AUDIO
    TITLE "11:cjc041_1692"
    INDEX 01 01:00:19
  TRACK 52 AUDIO
    TITLE "0:"
    INDEX 01 01:03:51
  TRACK 53 AUDIO
    TITLE "10:cjc041_1693"
    INDEX 01 01:04:27
  TRACK 54 AUDIO
    TITLE "0:"
    INDEX 01 01:05:42
  TRACK 55 AUDIO
    TITLE "11:cjc041_1694"
    INDEX 01 01:06:18
  TRACK 56 AUDIO
    TITLE "0:"
    INDEX 01 01:08:13
  TRACK 57 AUDIO
    TITLE "10:cjc041_1695"
    INDEX 01 01:08:66
  TRACK 58 AUDIO
    TITLE "0:"
    INDEX 01 01:09:73
  TRACK 59 AUDIO
    TITLE "11:cjc041_1696"
    INDEX 01 01:10:57
  TRACK 60 AUDIO
    TITLE "0:"
    INDEX 01 01:14:06
  TRACK 61 AUDIO
    TITLE "10:cjc041_1697"
    INDEX 01 01:14:61
  TRACK 62 AUDIO
    TITLE "0:"
    INDEX 01 01:16:11
  TRACK 63 AUDIO
    TITLE "11:cjc041_1698"
    INDEX 01 01:16:60
  TRACK 64 AUDIO
    TITLE "0:"
    INDEX 01 01:21:57
